<svg width="268" height="180" viewBox="0 0 268 200" fill="none" xmlns="http://www.w3.org/2000/svg">
<path d="M94.74 236.97C76.05 236.29 49.32 231.06 28.07 210.02C-0.740007 181.49 -3.11001 139.73 3.62999 112.64C9.06999 90.77 22.32 69.33 41.97 50.65C59.73 33.75 82.35 19.6 105.65 10.8C122.45 4.46 139.2 1.05 154.07 0.960002C170.06 0.860002 183.38 4.40999 193.67 11.53C204.27 18.86 212.78 31.05 218.28 46.76C223.51 61.71 225.95 79.49 225.32 98.2C224.51 122.5 218.77 146.43 208.71 167.4C197.62 190.52 181.67 208.77 162.57 220.19C144.49 231 121.64 237.05 99.23 237.05C97.73 237.05 96.23 237.02 94.74 236.97ZM106.39 12.77C67.82 27.33 18.3 62.35 5.67998 113.15C-0.920022 139.7 1.36998 180.62 29.56 208.52C64.54 243.15 124.1 240.73 161.48 218.38C204.91 192.42 221.84 139.24 223.21 98.13C224.49 59.78 212.71 27.26 192.47 13.26C182.7 6.49999 169.62 3.11 154.61 3.11C139.96 3.11 123.47 6.33 106.39 12.77Z" fill="#BADDFF"/>
<path d="M259.24 120.79C256.14 69.8 210.17 31.39 168.19 23.08C86.4196 6.90003 -3.25036 100.4 10.5296 159.28C24.4496 218.77 147.44 257.62 214.09 210.35C238.96 192.71 261.57 159.12 259.24 120.79Z" fill="white"/>
<mask id="mask0_1798_25108" style="mask-type:luminance" maskUnits="userSpaceOnUse" x="9" y="21" width="251" height="211">
<path d="M259.24 120.79C256.14 69.8 210.17 31.39 168.19 23.08C86.4196 6.90003 -3.25036 100.4 10.5296 159.28C24.4496 218.77 147.44 257.62 214.09 210.35C238.96 192.71 261.57 159.12 259.24 120.79Z" fill="white"/>
</mask>
<g mask="url(#mask0_1798_25108)">
<path d="M307.53 179.79H-41.21V242.55H307.53V179.79Z" fill="white"/>
</g>
<mask id="mask1_1798_25108" style="mask-type:luminance" maskUnits="userSpaceOnUse" x="9" y="21" width="251" height="211">
<path d="M259.24 120.79C256.14 69.8 210.17 31.39 168.19 23.08C86.4196 6.90003 -3.25036 100.4 10.5296 159.28C24.4496 218.77 147.44 257.62 214.09 210.35C238.96 192.71 261.57 159.12 259.24 120.79Z" fill="white"/>
</mask>
<g mask="url(#mask1_1798_25108)">
<path d="M307.53 -3.48999H-41.21V179.79H307.53V-3.48999Z" fill="#E2F2FF"/>
</g>
<mask id="mask2_1798_25108" style="mask-type:luminance" maskUnits="userSpaceOnUse" x="9" y="21" width="251" height="211">
<path d="M259.24 120.79C256.14 69.8 210.17 31.39 168.19 23.08C86.4196 6.90003 -3.25036 100.4 10.5296 159.28C24.4496 218.77 147.44 257.62 214.09 210.35C238.96 192.71 261.57 159.12 259.24 120.79Z" fill="white"/>
</mask>
<g mask="url(#mask2_1798_25108)">
<path d="M191.959 83.92H197.819C211.889 83.92 223.299 95.33 223.299 109.4V179.79H166.479V109.4C166.479 95.33 177.889 83.92 191.959 83.92Z" fill="white"/>
</g>
<mask id="mask3_1798_25108" style="mask-type:luminance" maskUnits="userSpaceOnUse" x="9" y="21" width="251" height="211">
<path d="M259.24 120.79C256.14 69.8 210.17 31.39 168.19 23.08C86.4196 6.90003 -3.25036 100.4 10.5296 159.28C24.4496 218.77 147.44 257.62 214.09 210.35C238.96 192.71 261.57 159.12 259.24 120.79Z" fill="white"/>
</mask>
<g mask="url(#mask3_1798_25108)">
<path d="M93.7297 69.15H58.1396V137.67H93.7297V69.15Z" fill="white"/>
<path d="M51.5294 69.15H15.9395V137.67H51.5294V69.15Z" fill="white"/>
</g>
<path d="M237.6 54.16C237.6 45.91 244.31 39.2 252.56 39.2C260.81 39.2 267.52 45.91 267.52 54.16C267.52 62.41 260.81 69.1199 252.56 69.1199C244.31 69.1199 237.6 62.41 237.6 54.16ZM239.71 54.16C239.71 61.24 245.47 67.0099 252.56 67.0099C259.64 67.0099 265.41 61.25 265.41 54.16C265.41 47.07 259.65 41.31 252.56 41.31C245.47 41.31 239.71 47.08 239.71 54.16Z" fill="#BADDFF"/>
<path d="M226.4 32.5C226.98 32.5 227.46 32.03 227.46 31.44V17.54C227.46 16.96 226.99 16.48 226.4 16.48C225.81 16.48 225.34 16.95 225.34 17.54V31.44C225.35 32.03 225.82 32.5 226.4 32.5Z" fill="#BADDFF"/>
<path d="M219.45 25.55H233.35C233.93 25.55 234.41 25.08 234.41 24.49C234.41 23.91 233.94 23.43 233.35 23.43H219.45C218.87 23.43 218.39 23.9 218.39 24.49C218.4 25.08 218.87 25.55 219.45 25.55Z" fill="#BADDFF"/>
<path d="M49.1098 222.23C49.6898 222.23 50.1698 221.76 50.1698 221.17V207.27C50.1698 206.69 49.6998 206.21 49.1098 206.21C48.5298 206.21 48.0498 206.68 48.0498 207.27V221.17C48.0598 221.76 48.5298 222.23 49.1098 222.23Z" fill="#BADDFF"/>
<path d="M42.1596 215.28H56.0596C56.6396 215.28 57.1196 214.81 57.1196 214.22C57.1196 213.63 56.6496 213.16 56.0596 213.16H42.1596C41.5796 213.16 41.0996 213.63 41.0996 214.22C41.0996 214.81 41.5796 215.28 42.1596 215.28Z" fill="#BADDFF"/>
<path d="M238.65 198.5L247.88 205.2L244.36 216.05H232.95L229.43 205.2L238.65 198.5Z" fill="#BADDFF"/>
<path d="M56.1098 26.64L52.5898 15.79C52.4498 15.36 52.5998 14.88 52.9698 14.61L62.1998 7.91002C62.5698 7.64002 63.0698 7.64002 63.4398 7.91002L72.6698 14.61C73.0398 14.88 73.1898 15.35 73.0498 15.79L69.5298 26.64C69.3898 27.07 68.9798 27.37 68.5298 27.37H57.1198C56.6598 27.37 56.2598 27.08 56.1098 26.64ZM70.8098 15.87L62.8198 10.07L54.8298 15.87L57.8798 25.26H67.7498L70.8098 15.87Z" fill="#BADDFF"/>
<path d="M163.92 17.54C166.698 17.54 168.95 15.288 168.95 12.51C168.95 9.73199 166.698 7.47998 163.92 7.47998C161.142 7.47998 158.89 9.73199 158.89 12.51C158.89 15.288 161.142 17.54 163.92 17.54Z" fill="#BADDFF"/>
<path d="M20.1001 62.75C22.0662 62.75 23.66 61.1561 23.66 59.19C23.66 57.2239 22.0662 55.63 20.1001 55.63C18.1339 55.63 16.54 57.2239 16.54 59.19C16.54 61.1561 18.1339 62.75 20.1001 62.75Z" fill="#BADDFF"/>
<path d="M140.94 77.14C140.94 87.05 158.89 97.78 158.89 97.78C158.89 97.78 176.84 87.05 176.84 77.14C176.84 67.23 168.8 59.19 158.89 59.19C148.98 59.19 140.94 67.23 140.94 77.14Z" fill="#0E71E9"/>
<path d="M158.89 94.05L154.54 100.26H158.89H163.23L158.89 94.05Z" fill="#0E71E9"/>
<path d="M120.04 83.79C120.04 93.7 137.99 104.43 137.99 104.43C137.99 104.43 155.94 93.7 155.94 83.79C155.94 73.88 147.9 65.84 137.99 65.84C128.08 65.84 120.04 73.88 120.04 83.79Z" fill="#0E71E9"/>
<path d="M137.99 100.7L133.64 106.91H137.99H142.33L137.99 100.7Z" fill="#0E71E9"/>
<path d="M166.35 85.03C166.35 73.98 157.36 65 146.32 65C135.27 65 126.29 73.99 126.29 85.03C126.29 93.18 136.01 101.15 141.59 105.07L137.97 110.24H154.66L151.04 105.07C156.63 101.16 166.35 93.18 166.35 85.03Z" fill="#E2F2FF"/>
<path d="M128.37 85.03C128.37 94.94 146.32 105.67 146.32 105.67C146.32 105.67 164.27 94.94 164.27 85.03C164.27 75.12 156.23 67.08 146.32 67.08C136.41 67.08 128.37 75.12 128.37 85.03Z" fill="#0E71E9"/>
<path d="M146.32 101.94L141.97 108.16H146.32H150.66L146.32 101.94Z" fill="#0E71E9"/>
<path d="M156.56 91.71L155.15 90.71C154.16 90.01 153.57 88.87 153.57 87.66V83.03C153.57 80.84 152.88 79.08 151.77 77.67C148.97 74.12 143.67 74.12 140.87 77.67C139.76 79.07 139.07 80.83 139.07 83.03V87.66C139.07 88.87 138.48 90.01 137.49 90.71L136.08 91.71C135.38 92.2 135.73 93.3 136.59 93.3H146.33H156.06C156.9 93.3 157.25 92.21 156.56 91.71Z" fill="white"/>
<path d="M148.92 97.9C150.61 97.9 151.98 96.53 151.98 94.84H145.87C145.87 96.53 147.24 97.9 148.92 97.9Z" fill="white"/>
<path d="M126 212.92C141.348 212.92 153.79 211.425 153.79 209.58C153.79 207.735 141.348 206.24 126 206.24C110.652 206.24 98.21 207.735 98.21 209.58C98.21 211.425 110.652 212.92 126 212.92Z" fill="#BADDFF"/>
<path d="M147.92 139.16L146.32 150.6L157.6 146.59L163.07 142.65L147.92 139.16Z" fill="#F9A31A"/>
<path d="M109.15 203.69C109.15 203.69 102.31 147.2 117.87 144.88C117.87 144.88 132.68 133.04 138.56 139.16C155.45 156.75 152.59 176.5 137.53 209.57H95.71L109.15 203.69Z" fill="#EEEEEE"/>
<path d="M140.14 203.69L130.97 209.58H146.32C146.32 209.58 145.51 204.74 140.14 203.69Z" fill="#3B3A3C"/>
<path d="M122.89 203.69C114.95 175.3 113.52 142.56 134.45 142.56C140 142.56 144.52 145.86 146.32 150.6C147.29 148.45 147.9 146.12 148.09 143.69C148.94 132.72 140.74 123.82 129.76 123.82C104.77 123.82 97.7804 173.77 109.14 203.69H122.89Z" fill="#555657"/>
<path d="M139.6 134.68C140.83 134.68 141.96 135.09 142.87 135.76C142.34 133.75 140.51 132.26 138.34 132.26C135.75 132.26 133.65 134.36 133.65 136.95C133.65 137.75 133.85 138.49 134.2 139.15C134.67 136.61 136.91 134.68 139.6 134.68Z" fill="white"/>
<path d="M146.94 107.5H145.69V158.17H146.94V107.5Z" fill="#0E71E9"/>
<path d="M145.12 179.46C143.18 177.9 142.25 176.56 142.2 175.24C142.14 173.65 143.38 172.47 144.59 171.34C146.71 169.34 148.72 167.45 145.3 163.12L146.28 162.35C150.41 167.58 147.54 170.28 145.45 172.26C144.36 173.29 143.41 174.18 143.45 175.2C143.49 176.1 144.31 177.21 145.91 178.5L145.12 179.46Z" fill="#0E71E9"/>
<path d="M117.99 151.52C133.67 183.33 155.07 142.48 150.06 155.76C138.25 187.08 115.84 179.93 115.8 179.94C114.27 172.73 113.09 150.23 117.99 151.52Z" fill="#555657"/>
<path d="M146.22 156.55L137.37 104.53L138.6 104.32L146.42 150.27L158.28 100.12L159.49 100.41L146.22 156.55Z" fill="#0E71E9"/>
<path d="M203.29 199.42C209.984 199.42 215.41 198.144 215.41 196.57C215.41 194.996 209.984 193.72 203.29 193.72C196.596 193.72 191.17 194.996 191.17 196.57C191.17 198.144 196.596 199.42 203.29 199.42Z" fill="#E2F2FF"/>
<path d="M55.6102 196.57C66.6062 196.57 75.5202 194.475 75.5202 191.89C75.5202 189.305 66.6062 187.21 55.6102 187.21C44.6142 187.21 35.7002 189.305 35.7002 191.89C35.7002 194.475 44.6142 196.57 55.6102 196.57Z" fill="#E2F2FF"/>
<path d="M53.11 181.45H42.25L39.75 167.99H55.61L53.11 181.45Z" fill="#BADDFF"/>
<path d="M56.7099 171.02H38.6499L37.6699 167.99H57.6899L56.7099 171.02Z" fill="#BADDFF"/>
<path d="M46.1945 156.617C47.7019 155.11 48.1134 153.078 47.1137 152.078C46.114 151.078 44.0815 151.49 42.5741 152.997C41.0667 154.505 40.6552 156.537 41.6549 157.537C42.6546 158.536 44.6871 158.125 46.1945 156.617Z" fill="#BADDFF"/>
<path d="M52.7746 150.034C54.282 148.526 54.6935 146.494 53.6938 145.494C52.6941 144.494 50.6616 144.906 49.1542 146.413C47.6468 147.921 47.2352 149.953 48.235 150.953C49.2347 151.953 51.2672 151.541 52.7746 150.034Z" fill="#BADDFF"/>
<path d="M53.6957 157.542C54.6955 156.543 54.2839 154.51 52.7765 153.003C51.2691 151.495 49.2367 151.084 48.2369 152.083C47.2372 153.083 47.6487 155.116 49.1562 156.623C50.6636 158.13 52.696 158.542 53.6957 157.542Z" fill="#BADDFF"/>
<path d="M47.1118 150.947C48.1115 149.948 47.6999 147.915 46.1925 146.408C44.6851 144.9 42.6527 144.489 41.6529 145.489C40.6532 146.488 41.0648 148.521 42.5722 150.028C44.0796 151.536 46.112 151.947 47.1118 150.947Z" fill="#BADDFF"/>
<path d="M47.6796 169.19L46.7196 168.39C49.6996 164.82 48.8196 163.47 47.5896 161.61C46.4296 159.85 44.9996 157.67 47.1496 153.42L48.2596 153.98C46.4296 157.59 47.4996 159.21 48.6296 160.92C49.9196 162.88 51.2596 164.9 47.6796 169.19Z" fill="#BADDFF"/>
<path d="M75.6901 181.45H64.8301L62.3301 167.99H78.1901L75.6901 181.45Z" fill="#BADDFF"/>
<path d="M79.29 171.02H61.22L60.25 167.99H80.27L79.29 171.02Z" fill="#BADDFF"/>
<path d="M65.6002 154.08C67.7321 154.08 69.4602 152.934 69.4602 151.52C69.4602 150.106 67.7321 148.96 65.6002 148.96C63.4684 148.96 61.7402 150.106 61.7402 151.52C61.7402 152.934 63.4684 154.08 65.6002 154.08Z" fill="#BADDFF"/>
<path d="M74.9098 154.08C77.0416 154.08 78.7698 152.934 78.7698 151.52C78.7698 150.106 77.0416 148.96 74.9098 148.96C72.778 148.96 71.0498 150.106 71.0498 151.52C71.0498 152.934 72.778 154.08 74.9098 154.08Z" fill="#BADDFF"/>
<path d="M70.2602 160.04C71.674 160.04 72.8202 158.312 72.8202 156.18C72.8202 154.048 71.674 152.32 70.2602 152.32C68.8463 152.32 67.7002 154.048 67.7002 156.18C67.7002 158.312 68.8463 160.04 70.2602 160.04Z" fill="#BADDFF"/>
<path d="M70.2602 150.72C71.674 150.72 72.8202 148.992 72.8202 146.86C72.8202 144.728 71.674 143 70.2602 143C68.8463 143 67.7002 144.728 67.7002 146.86C67.7002 148.992 68.8463 150.72 70.2602 150.72Z" fill="#BADDFF"/>
<path d="M70.2596 169.19L69.2996 168.39C72.2796 164.82 71.3996 163.47 70.1696 161.61C69.0096 159.85 67.5796 157.67 69.7296 153.42L70.8396 153.98C69.0096 157.59 70.0797 159.21 71.2097 160.92C72.4997 162.88 73.8296 164.9 70.2596 169.19Z" fill="#BADDFF"/>
</svg>
