<svg width="355" height="334" viewBox="0 0 355 334" fill="none" xmlns="http://www.w3.org/2000/svg">
<path d="M147.226 368.691C118.04 367.622 76.2689 359.453 43.0843 326.594C-1.92636 282.033 -5.61526 216.795 4.90893 174.466C13.4027 140.305 34.1101 106.811 64.7992 77.6249C92.5434 51.2292 127.882 29.1113 164.275 15.3787C190.516 5.4745 216.679 0.158155 239.913 0.00315923C264.883 -0.151836 285.699 5.39699 301.772 16.5102C318.325 27.9643 331.624 46.9978 340.211 71.5491C348.379 94.8914 352.192 122.682 351.215 151.914C349.96 189.873 340.986 227.258 325.269 260.024C307.956 296.138 283.017 324.657 253.181 342.497C224.941 359.376 189.245 368.831 154.232 368.831C151.891 368.815 149.551 368.769 147.226 368.691ZM165.422 18.4476C105.176 41.1855 27.8173 95.8989 8.08635 175.257C-2.22086 216.733 1.35953 280.654 45.3938 324.238C100.03 378.332 193.089 374.55 251.476 339.645C319.317 299.083 345.775 216.005 347.899 151.79C349.898 91.8845 331.485 41.077 299.865 19.2071C284.598 8.63641 264.17 3.35107 240.719 3.35107C217.873 3.35107 192.113 8.38841 165.422 18.4476Z" fill="#BADDFF"/>
<path d="M404.209 187.206C399.358 107.554 327.548 47.5399 261.985 34.5667C134.238 9.28696 -5.83173 155.355 15.6816 247.329C37.4275 340.264 229.56 400.961 333.671 327.121C372.528 299.547 407.851 247.066 404.209 187.206Z" fill="white"/>
<mask id="mask0_4372_7426" style="mask-type:luminance" maskUnits="userSpaceOnUse" x="13" y="31" width="392" height="330">
<path d="M404.209 187.203C399.358 107.551 327.549 47.5363 261.986 34.5631C134.238 9.28336 -5.83125 155.351 15.6821 247.326C37.428 340.261 229.56 400.957 333.671 327.117C372.528 299.544 407.852 247.062 404.209 187.203Z" fill="white"/>
</mask>
<g mask="url(#mask0_4372_7426)">
<path d="M479.645 279.37H-65.1488V377.421H479.645V279.37Z" fill="white"/>
</g>
<mask id="mask1_4372_7426" style="mask-type:luminance" maskUnits="userSpaceOnUse" x="13" y="31" width="392" height="330">
<path d="M404.209 187.203C399.358 107.551 327.549 47.5363 261.986 34.5631C134.238 9.28336 -5.83125 155.351 15.6821 247.326C37.428 340.261 229.56 400.957 333.671 327.117C372.528 299.544 407.852 247.062 404.209 187.203Z" fill="white"/>
</mask>
<g mask="url(#mask1_4372_7426)">
<path d="M479.645 -6.95953H-65.1488V279.348H479.645V-6.95953Z" fill="#E2F2FF"/>
</g>
<mask id="mask2_4372_7426" style="mask-type:luminance" maskUnits="userSpaceOnUse" x="13" y="31" width="392" height="330">
<path d="M404.209 187.203C399.358 107.551 327.549 47.5363 261.986 34.5631C134.238 9.28336 -5.83125 155.351 15.6821 247.326C37.428 340.261 229.56 400.957 333.671 327.117C372.528 299.544 407.852 247.062 404.209 187.203Z" fill="white"/>
</mask>
<g mask="url(#mask2_4372_7426)">
<path d="M428.574 114.415H383.021C363.709 114.415 348.054 130.069 348.054 149.382V267.566C348.054 286.878 363.709 302.533 383.021 302.533H428.574C447.887 302.533 463.541 286.878 463.541 267.566V149.366C463.526 130.054 447.871 114.415 428.574 114.415Z" fill="#BADDFF"/>
</g>
<mask id="mask3_4372_7426" style="mask-type:luminance" maskUnits="userSpaceOnUse" x="13" y="31" width="392" height="330">
<path d="M404.209 187.203C399.358 107.551 327.549 47.5363 261.986 34.5631C134.238 9.28336 -5.83125 155.351 15.6821 247.326C37.428 340.261 229.56 400.957 333.671 327.117C372.528 299.544 407.852 247.062 404.209 187.203Z" fill="white"/>
</mask>
<g mask="url(#mask3_4372_7426)">
<path d="M122.985 222.114H41.8143V233.103H122.985V222.114Z" fill="#BADDFF"/>
<path d="M54.9898 290.85H49.069L55.5788 227.596H64.7545L54.9898 290.85Z" fill="#BADDFF"/>
<path d="M109.811 290.85H115.748L109.238 227.596H100.062L109.811 290.85Z" fill="#BADDFF"/>
</g>
<mask id="mask4_4372_7426" style="mask-type:luminance" maskUnits="userSpaceOnUse" x="13" y="31" width="392" height="330">
<path d="M404.209 187.203C399.358 107.551 327.549 47.5363 261.986 34.5631C134.238 9.28336 -5.83125 155.351 15.6821 247.326C37.428 340.261 229.56 400.957 333.671 327.117C372.528 299.544 407.852 247.062 404.209 187.203Z" fill="white"/>
</mask>
<g mask="url(#mask4_4372_7426)">
<path d="M138.267 164.224H114.987C108.555 164.224 103.347 159.016 103.347 152.584V114.502C103.347 108.069 108.555 102.861 114.987 102.861H138.267C144.699 102.861 149.907 108.069 149.907 114.502V152.584C149.907 159.001 144.699 164.224 138.267 164.224Z" fill="#BADDFF"/>
<path d="M126.627 96.9395C128.665 96.9395 130.316 95.2879 130.316 93.2506C130.316 91.2133 128.665 89.5617 126.627 89.5617C124.59 89.5617 122.938 91.2133 122.938 93.2506C122.938 95.2879 124.59 96.9395 126.627 96.9395Z" fill="#BADDFF"/>
<path d="M138.639 108.702L128.906 91.6681C128.425 90.8466 127.573 90.3506 126.627 90.3506C125.666 90.3506 124.814 90.8466 124.349 91.6681L114.615 108.702L112.352 107.416L122.086 90.3816C123.031 88.7387 124.721 87.7467 126.627 87.7467C128.534 87.7467 130.223 88.7387 131.169 90.3816L140.902 107.416L138.639 108.702Z" fill="#BADDFF"/>
</g>
<mask id="mask5_4372_7426" style="mask-type:luminance" maskUnits="userSpaceOnUse" x="13" y="31" width="392" height="330">
<path d="M404.209 187.203C399.358 107.551 327.549 47.5363 261.986 34.5631C134.238 9.28336 -5.83125 155.351 15.6821 247.326C37.428 340.261 229.56 400.957 333.671 327.117C372.528 299.544 407.852 247.062 404.209 187.203Z" fill="white"/>
</mask>
<g mask="url(#mask5_4372_7426)">
<path d="M97.4736 200.563C94.5132 193.263 86.7944 193.48 85.3064 195.386C84.9499 195.851 84.4695 196.285 83.9425 196.657C81.85 198.176 79.0136 198.176 76.9212 196.657C76.4097 196.285 75.9292 195.851 75.5572 195.386C74.0693 193.48 66.3505 193.263 63.3901 200.563C60.4296 207.863 63.6071 225.037 80.4241 223.564C97.2566 225.037 100.434 207.863 97.4736 200.563Z" fill="#BADDFF"/>
<path d="M74.8902 182.999L73.0923 186.285C73.0923 186.285 79.6486 190.098 79.6486 198.018H81.2296C81.2451 198.018 82.4075 187.866 74.8902 182.999Z" fill="#BADDFF"/>
</g>
<path d="M352.905 49.277C353.819 49.277 354.548 48.533 354.548 47.6341V25.9192C354.548 25.0047 353.804 24.2762 352.905 24.2762C352.006 24.2762 351.262 25.0202 351.262 25.9192V47.6341C351.262 48.533 351.99 49.277 352.905 49.277Z" fill="#BADDFF"/>
<path d="M342.056 38.4099H363.771C364.685 38.4099 365.413 37.6659 365.413 36.7669C365.413 35.8524 364.67 35.124 363.771 35.124H342.056C341.141 35.124 340.413 35.8679 340.413 36.7669C340.397 37.6814 341.141 38.4099 342.056 38.4099Z" fill="#BADDFF"/>
<path d="M75.9432 345.668C76.8577 345.668 77.5862 344.924 77.5862 344.025V322.31C77.5862 321.396 76.8422 320.667 75.9432 320.667C75.0288 320.667 74.3003 321.411 74.3003 322.31V344.025C74.3003 344.924 75.0443 345.668 75.9432 345.668Z" fill="#BADDFF"/>
<path d="M65.0938 334.807H86.8086C87.7231 334.807 88.4516 334.063 88.4516 333.164C88.4516 332.249 87.7076 331.521 86.8086 331.521H65.0938C64.1793 331.521 63.4508 332.265 63.4508 333.164C63.4508 334.063 64.1793 334.807 65.0938 334.807Z" fill="#BADDFF"/>
<path d="M86.886 40.1316L81.3836 23.1906C81.1666 22.5086 81.3991 21.7646 81.9881 21.3461L96.4027 10.8684C96.9762 10.4499 97.7667 10.4499 98.3402 10.8684L112.755 21.3461C113.328 21.7646 113.576 22.5086 113.359 23.1906L107.857 40.1316C107.64 40.8136 107.004 41.2631 106.291 41.2631H88.4824C87.7385 41.2631 87.103 40.7981 86.886 40.1316ZM109.841 23.2991L97.3637 14.2319L84.8866 23.2991L89.6449 37.9617H105.067L109.841 23.2991Z" fill="#BADDFF"/>
<path d="M255.289 25.8987C259.629 25.8987 263.147 22.3804 263.147 18.0404C263.147 13.7004 259.629 10.1821 255.289 10.1821C250.949 10.1821 247.431 13.7004 247.431 18.0404C247.431 22.3804 250.949 25.8987 255.289 25.8987Z" fill="#BADDFF"/>
<path d="M30.6232 96.53C33.6963 96.53 36.1875 94.0388 36.1875 90.9657C36.1875 87.8926 33.6963 85.4014 30.6232 85.4014C27.5501 85.4014 25.0588 87.8926 25.0588 90.9657C25.0588 94.0388 27.5501 96.53 30.6232 96.53Z" fill="#BADDFF"/>
<path d="M308.096 121.585H252.499V228.625H308.096V121.585Z" fill="white"/>
<path d="M242.16 121.585H186.563V228.625H242.16V121.585Z" fill="white"/>
<path d="M196.064 331.129C220.041 331.129 239.478 328.79 239.478 325.905C239.478 323.021 220.041 320.682 196.064 320.682C172.087 320.682 152.65 323.021 152.65 325.905C152.65 328.79 172.087 331.129 196.064 331.129Z" fill="#BADDFF"/>
<path d="M230.304 215.9L227.793 233.771L245.431 227.509L253.956 221.356L230.304 215.9Z" fill="#F9A31A"/>
<path d="M169.731 316.715C169.731 316.715 159.051 228.461 183.355 224.849C183.355 224.849 206.495 206.358 215.671 215.922C242.051 243.402 237.588 274.262 214.059 325.922H148.729L169.731 316.715Z" fill="#EEEEEE"/>
<path d="M218.136 316.712L203.814 325.903H227.792C227.792 325.903 226.537 318.355 218.136 316.712Z" fill="#3B3A3C"/>
<path d="M191.198 316.717C178.783 272.373 176.567 221.225 209.255 221.225C217.919 221.225 224.987 226.37 227.793 233.779C229.296 230.416 230.273 226.789 230.567 222.992C231.9 205.849 219.082 191.961 201.939 191.961C162.896 191.961 151.984 270.002 169.731 316.733H191.198V316.717Z" fill="#555657"/>
<path d="M217.299 208.9C219.221 208.9 220.972 209.536 222.414 210.59C221.592 207.443 218.741 205.134 215.331 205.134C211.285 205.134 207.999 208.42 207.999 212.465C207.999 213.705 208.309 214.883 208.852 215.906C209.611 211.923 213.099 208.9 217.299 208.9Z" fill="white"/>
<path d="M232.597 256.45L232.008 255.504C229.342 251.226 230.644 245.584 234.922 242.918L255.769 229.899C260.047 227.233 265.689 228.535 268.355 232.813L268.944 233.758C271.61 238.036 270.308 243.678 266.03 246.344L245.183 259.363C240.905 262.045 235.279 260.743 232.597 256.45Z" fill="#0E71E9"/>
<path d="M240.316 241.243L256.73 230.998C259.55 229.231 263.286 230.099 265.053 232.92L265.905 234.284C267.672 237.105 266.804 240.84 263.983 242.607L247.569 252.868C244.748 254.635 241.013 253.767 239.246 250.946L238.394 249.582C236.611 246.73 237.479 243.01 240.316 241.243Z" fill="white"/>
<path d="M234.984 255.239C236.423 255.239 237.588 254.073 237.588 252.635C237.588 251.197 236.423 250.031 234.984 250.031C233.546 250.031 232.38 251.197 232.38 252.635C232.38 254.073 233.546 255.239 234.984 255.239Z" fill="white"/>
<path d="M183.557 235.214C208.061 284.906 267.068 240.112 250.778 255.147C219.206 284.27 180.209 279.605 180.147 279.605C177.744 268.337 175.9 233.199 183.557 235.214Z" fill="#555657"/>
<path d="M201.971 169.79C201.568 169.79 201.181 169.527 201.041 169.124C200.747 168.209 200.483 167.217 200.266 166.194C200.158 165.667 200.483 165.156 201.01 165.032C201.537 164.923 202.049 165.249 202.173 165.776C202.374 166.737 202.622 167.651 202.901 168.504C203.072 169.015 202.793 169.573 202.281 169.728C202.173 169.775 202.064 169.79 201.971 169.79Z" fill="#0E71E9"/>
<path d="M262.992 208.488C262.496 208.488 262.062 208.1 262.015 207.589C261.845 205.559 261.597 203.637 261.256 201.885C261.147 201.358 261.504 200.847 262.031 200.738C262.558 200.63 263.069 200.986 263.178 201.513C263.534 203.342 263.798 205.326 263.968 207.418C264.015 207.961 263.612 208.426 263.069 208.472C263.038 208.488 263.007 208.488 262.992 208.488ZM259.954 195.205C259.582 195.205 259.225 194.988 259.055 194.631C258.249 192.833 257.288 191.221 256.172 189.857C255.831 189.439 255.893 188.819 256.312 188.478C256.73 188.137 257.35 188.199 257.691 188.618C258.915 190.121 259.969 191.872 260.837 193.841C261.054 194.337 260.837 194.91 260.341 195.127C260.217 195.189 260.078 195.205 259.954 195.205ZM250.887 185.363C250.732 185.363 250.592 185.332 250.453 185.254C248.872 184.464 247.151 183.844 245.152 183.394C244.625 183.27 244.299 182.743 244.423 182.232C244.547 181.705 245.074 181.379 245.586 181.503C247.725 181.999 249.616 182.65 251.321 183.518C251.801 183.766 252.003 184.355 251.755 184.836C251.584 185.161 251.243 185.363 250.887 185.363ZM237.604 182.464C237.588 182.464 237.573 182.464 237.557 182.464C236.069 182.387 234.457 182.356 232.334 182.356H231.729C231.187 182.356 230.753 181.922 230.753 181.379C230.753 180.837 231.187 180.403 231.729 180.403H232.334C234.488 180.403 236.131 180.434 237.65 180.511C238.193 180.542 238.611 180.992 238.58 181.534C238.565 182.046 238.131 182.464 237.604 182.464ZM223.917 182.34H223.902C221.577 182.294 219.686 182.17 217.95 181.953C217.408 181.891 217.036 181.395 217.098 180.868C217.16 180.325 217.656 179.953 218.183 180.015C219.857 180.217 221.686 180.341 223.933 180.387C224.475 180.403 224.894 180.852 224.894 181.379C224.878 181.922 224.444 182.34 223.917 182.34ZM210.526 179.953C210.386 179.953 210.247 179.922 210.107 179.86C208.154 178.946 206.465 177.721 205.086 176.233C204.714 175.846 204.745 175.226 205.132 174.854C205.52 174.482 206.139 174.513 206.511 174.9C207.751 176.233 209.193 177.272 210.944 178.093C211.425 178.326 211.642 178.899 211.409 179.395C211.239 179.752 210.898 179.953 210.526 179.953Z" fill="#0E71E9"/>
<path d="M263.147 219.292C263.132 219.292 263.116 219.292 263.101 219.292C262.558 219.276 262.14 218.811 262.171 218.284C262.217 217.292 262.233 216.316 262.248 215.386C262.248 214.843 262.698 214.44 263.24 214.425C263.783 214.425 264.217 214.874 264.201 215.417C264.186 216.378 264.155 217.354 264.124 218.377C264.108 218.889 263.674 219.292 263.147 219.292Z" fill="#0E71E9"/>
<path d="M173.172 119.276C173.172 134.76 201.211 160.721 201.211 160.721C201.211 160.721 229.249 134.76 229.249 119.276C229.249 103.791 216.695 91.2368 201.211 91.2368C185.727 91.2368 173.172 103.791 173.172 119.276Z" fill="#0E71E9"/>
<path d="M201.21 135.488C210.164 135.488 217.423 128.229 217.423 119.275C217.423 110.321 210.164 103.063 201.21 103.063C192.257 103.063 184.998 110.321 184.998 119.275C184.998 128.229 192.257 135.488 201.21 135.488Z" fill="white"/>
<path d="M196.56 129.603C197.227 129.603 197.878 129.339 198.343 128.859L211.362 115.839C212.354 114.847 212.354 113.251 211.362 112.274C210.37 111.283 208.774 111.283 207.798 112.274L196.576 123.496L193.352 120.272C192.36 119.28 190.764 119.28 189.787 120.272C188.795 121.264 188.795 122.861 189.787 123.837L194.793 128.843C195.258 129.339 195.894 129.603 196.56 129.603Z" fill="#0E71E9"/>
</svg>
